<svg width="18" height="24" viewBox="0 0 18 24" fill="none" xmlns="http://www.w3.org/2000/svg">
<path d="M8.51049 0C7.26729 0 6.07501 0.49386 5.19593 1.37294C4.31685 2.25201 3.82299 3.4443 3.82299 4.6875V5.46875H3.17456C2.51683 5.46806 1.88419 5.72107 1.40832 6.1751C0.932454 6.62914 0.650039 7.24922 0.619869 7.90625L0.00268136 20.7578C-0.0131401 21.1034 0.0411781 21.4486 0.162362 21.7726C0.283545 22.0967 0.469085 22.3928 0.707797 22.6432C0.946509 22.8936 1.23345 23.093 1.55132 23.2296C1.8692 23.3661 2.21142 23.4368 2.55737 23.4375H14.4636C14.8096 23.4368 15.1518 23.3661 15.4697 23.2296C15.7875 23.093 16.0745 22.8936 16.3132 22.6432C16.5519 22.3928 16.7374 22.0967 16.8586 21.7726C16.9798 21.4486 17.0341 21.1034 17.0183 20.7578L16.4011 7.90625C16.3709 7.24922 16.0885 6.62914 15.6127 6.1751C15.1368 5.72107 14.5042 5.46806 13.8464 5.46875H13.198V4.6875C13.198 3.4443 12.7041 2.25201 11.8251 1.37294C10.946 0.49386 9.75369 0 8.51049 0ZM5.38549 4.6875C5.38549 3.8587 5.71473 3.06384 6.30078 2.47779C6.88683 1.89174 7.68169 1.5625 8.51049 1.5625C9.33929 1.5625 10.1341 1.89174 10.7202 2.47779C11.3063 3.06384 11.6355 3.8587 11.6355 4.6875V5.46875H5.38549V4.6875ZM14.8386 7.97656L15.4558 20.8359C15.4607 20.9703 15.4391 21.1043 15.3922 21.2303C15.3452 21.3563 15.274 21.4719 15.1824 21.5703C15.0888 21.6663 14.9771 21.7428 14.8537 21.7951C14.7303 21.8474 14.5977 21.8746 14.4636 21.875H2.55737C2.42332 21.8746 2.29071 21.8474 2.16729 21.7951C2.04388 21.7428 1.93214 21.6663 1.83862 21.5703C1.74703 21.4719 1.67575 21.3563 1.62883 21.2303C1.58191 21.1043 1.56028 20.9703 1.56518 20.8359L2.18237 7.97656C2.19443 7.72163 2.30426 7.48114 2.48904 7.30509C2.67382 7.12904 2.91934 7.03097 3.17456 7.03125H13.8464C14.1017 7.03097 14.3472 7.12904 14.5319 7.30509C14.7167 7.48114 14.8266 7.72163 14.8386 7.97656Z" fill="black"/>
</svg>
